<mxfile host="app.diagrams.net" modified="2023-08-27T03:05:33.517Z" agent="Mozilla/5.0 (Macintosh; Intel Mac OS X 10_15_7) AppleWebKit/537.36 (KHTML, like Gecko) Chrome/115.0.0.0 Safari/537.36" etag="Ty4ST3H5pl9Z3kT6XVBS" version="21.6.8" type="github">
  <diagram name="第 1 页" id="ki2PbqS7d6tKHWJvR9hG">
    <mxGraphModel dx="1194" dy="760" grid="1" gridSize="10" guides="1" tooltips="1" connect="1" arrows="1" fold="1" page="1" pageScale="1" pageWidth="827" pageHeight="1169" math="0" shadow="0">
      <root>
        <mxCell id="0" />
        <mxCell id="1" parent="0" />
        <mxCell id="6Fmjh3FdFr4o_Rdq6Qbp-1" value="POD &lt;br&gt;Liveness探针&lt;br&gt;探测失败" style="rounded=0;whiteSpace=wrap;html=1;" vertex="1" parent="1">
          <mxGeometry x="90" y="300" width="120" height="60" as="geometry" />
        </mxCell>
      </root>
    </mxGraphModel>
  </diagram>
</mxfile>
